<svg xmlns="http://www.w3.org/2000/svg" viewBox="0 0 169.35 157.25"><defs><style>.cls-1,.cls-3{fill:none;stroke-miterlimit:10;stroke-width:3px;}.cls-1{stroke:#000;}.cls-2{fill:#fff;}.cls-3{stroke:#fff;}</style></defs><g id="Layer_2_copy" data-name="Layer 2 copy"><path class="cls-1" d="M197.43,329.66l83.05-66.61L362.4,326l-9.35,9.92-5.11-3.69V404.5s-2.26,12.75-10.2,12.19H227.47s-8.78,2.55-14.74-10.49V333.91L206.21,340Z" transform="translate(-195.28 -261.14)"/><path class="cls-1" d="M230.59,320.31l49.32-38.84,53,40.25v79.37H310.53V366.8s-.57-9.93-7.94-11.06H262.06s-9.36,1.13-9.36,10.2v35.15H228.89l.39-79.76Z" transform="translate(-195.28 -261.14)"/><polygon class="cls-1" points="72.87 138.11 72.87 110.61 97.53 110.61 97.53 138.96 72.87 138.96 72.87 138.11"/><path class="cls-1" d="M269.14,309.25h23.67s12.19,6.66,0,13H269.14S257.94,316.91,269.14,309.25Z" transform="translate(-195.28 -261.14)"/><path class="cls-2" d="M359.73,323c-5.76-2.86-10.16-7.45-15.9-10.4a30.4,30.4,0,0,1-12.55-11.81,4.62,4.62,0,0,0-5-2.31c-3.38-2.67-6.75-5.36-10.22-7.89-2-1.44-4.13-2.5-6.18-3.81s-3.15-3.2-4.83-4.9c-3.21-3.26-7.36-5.08-11.27-7.32-3.3-1.89-5.78-4.68-8.9-6.61a4.84,4.84,0,0,0-1.2-2.05,5.09,5.09,0,0,0-7.07,0,21.59,21.59,0,0,0-4.1,5.17,5.1,5.1,0,0,0-.32.72,2.06,2.06,0,0,0-.43,0c-4.22.44-7.38,3.26-9.64,6.73a13.91,13.91,0,0,0-1.51,2.22c-.07.14-.15.27-.23.4l-.06.09c-.24.22-.53.45-.59.49-.22.18-.43.37-.63.55-1,.38-2,.78-3.13,1.18a5,5,0,0,0-2.24,1.5,5.57,5.57,0,0,0-2.35,1.25c-7.09,6.18-14.18,12-21.73,17.57a5.41,5.41,0,0,0-2.16,3.16,4.89,4.89,0,0,0-1,.92l-.23.1a34.58,34.58,0,0,0-8.63,5.9c-2.49,2.36-4,5.49-7.21,6.88-3.54,1.54-5.83,1.75-8.51,4.95-1.78,2.12-3.25,4.46-2.45,7.32a6.2,6.2,0,0,0,5.66,4.45c3.69.32,4.44-1.89,6.91-3.69a4.79,4.79,0,0,1,1.68-.75q-.52,17.55-.46,35.1,0,8.69.24,17.38c.07,3.05.11,6.12.4,9.16.05.59.47,2.42.8,4.17a4.31,4.31,0,0,0-1.45,2.67,10.77,10.77,0,0,0,.94,7.1,4,4,0,0,0,2.86,2.28,24.5,24.5,0,0,0,3.08,3.32,5.27,5.27,0,0,0,4.09,1.36,4.84,4.84,0,0,0,2.61.76c34.09.64,68.19.69,102.27-.06,5.53-.13,13.71-.47,15.82-6.9,0-.11.07-.23.1-.34a5,5,0,0,0,1.11-3q1.08-23.28,1.24-46.61.06-11.42-.11-22.82c0-1.76,0-3.57-.05-5.37,4.38,2.51,8.84,3.45,13.55-.38C363.15,328.88,362.42,324.33,359.73,323Zm-90.52,78.1A100.06,100.06,0,0,0,268,387.91a54.37,54.37,0,0,1,.59-17c.14,0,.26,0,.4,0,8.38-.13,16.56.35,24.87.84,0,.2,0,.39,0,.6.75,7.25.19,14.06-.73,21.26a16.86,16.86,0,0,0,.47,6.34q-6,0-12.07.16C277.41,400.25,273.31,400.69,269.21,401.1Zm64.22-40.46c.19,7.05-.91,14.08-1.11,21.12q-.27,9.38-.52,18.76-11.3-.33-22.62-.47c1.29-6.86.85-15.63.95-18.36.22-6,1.66-13.19.1-19-1.21-4.53-6.32-8.39-10.91-6.28a7,7,0,0,0-1.55-.64c-5.5-1.48-12.15-1-17.82-1.16-4.71-.1-12.38-1.47-16.51,1.39a4.19,4.19,0,0,0-.33.26,4.61,4.61,0,0,0-2.63.21c-6.58,2.38-6.37,7.86-6,13.49a22.86,22.86,0,0,0-.19,4.16v5.72c-.75,7.36-1.75,14.6-1.66,22q-11.74-.35-23.47-1.09c-.15-1.19-.35-2.39-.58-3.6a47.51,47.51,0,0,1-.71-16.6,5.16,5.16,0,0,0-.58-3.33l.05-.68a4,4,0,0,0,1.09-3.57l-.52-4.05a6.32,6.32,0,0,0-.44-1.58l1-38a4.5,4.5,0,0,0-.55-2.26,18.59,18.59,0,0,1,1-3.91c.59-.53,1.18-1.07,1.76-1.62a4.41,4.41,0,0,0,1.42-4.35,5.51,5.51,0,0,0,1.83-1c2.11-1.68,4.78-2.55,6.92-4.28,2.36-1.89,4.57-4,6.75-6.06a4.88,4.88,0,0,0,.85-1.12,4.45,4.45,0,0,0,2.07-.76c6.5-4.38,12.74-9.08,19-13.81a5,5,0,0,0,2.21-.1l1.19-.5a5,5,0,0,0,1.8-1.79l.82-1.08c.1-.15.18-.31.26-.46a4.93,4.93,0,0,0,1.95-1.85c.27-.45.57-.89.87-1.32s.57-.69.88-1a5.45,5.45,0,0,0,.8-1.16,5,5,0,0,0,1.8,1.93c4,2.6,7.06,6.44,10.84,9.39,4,3.14,8.93,4.65,12.93,7.84,4.4,3.52,9.25,8.69,14.74,10.26a5,5,0,0,0,2.14,3.56L334,321.94C330.11,334.6,333.08,347.62,333.43,360.64Z" transform="translate(-195.28 -261.14)"/><path class="cls-2" d="M294.54,310.76c-2.82-1.82-6.57-1.27-9.71-1.1l-9.64.53a4.3,4.3,0,0,0-3.23-.87c-3.1.29-5.92.49-7.41,3.66a5.7,5.7,0,0,0,2.08,7.38c2.72,1.64,7.49.89,10.53,1,4.64.11,9.34.47,14,.34C297.53,321.49,300.41,314.57,294.54,310.76Z" transform="translate(-195.28 -261.14)"/></g><g id="Layer_2" data-name="Layer 2"><path class="cls-3" d="M197.43,329.66l83.05-66.61L362.4,326l-9.35,9.92-5.11-3.69V404.5s-2.26,12.75-10.2,12.19H227.47s-8.78,2.55-14.74-10.49V333.91L206.21,340Z" transform="translate(-195.28 -261.14)"/><path class="cls-3" d="M230.59,320.31l49.32-38.84,53,40.25v79.37H310.53V366.8s-.57-9.93-7.94-11.06H262.06s-9.36,1.13-9.36,10.2v35.15H228.89l.39-79.76Z" transform="translate(-195.28 -261.14)"/><polygon class="cls-3" points="72.87 138.11 72.87 110.61 97.53 110.61 97.53 138.96 72.87 138.96 72.87 138.11"/><path class="cls-3" d="M269.14,309.25h23.67s12.19,6.66,0,13H269.14S257.94,316.91,269.14,309.25Z" transform="translate(-195.28 -261.14)"/></g></svg>