<svg xmlns="http://www.w3.org/2000/svg" viewBox="0 0 91.57 135.7"><defs><style>.cls-1,.cls-3{fill:none;}.cls-2{fill:#fff;}.cls-3{stroke:#fff;stroke-miterlimit:10;stroke-width:3px;}</style></defs><g id="Layer_3_copy" data-name="Layer 3 copy"><path class="cls-1" d="M258.94,332.21l70.72-24.52v23.53s15,.14,15.31,10.06,0,84.48,0,84.48.57,10.77-11.2,14H256.53V333.49Z" transform="translate(-255.03 -305.59)"/><polygon class="cls-1" points="63.86 25.35 63.86 14.58 41.89 25.35 63.86 25.35"/><rect class="cls-1" x="14.68" y="34.71" width="63.07" height="84.76"/><rect class="cls-1" x="24.6" y="48.03" width="34.87" height="13.04"/><rect class="cls-1" x="23.33" y="69.15" width="27.65" height="12.33"/><path class="cls-2" d="M344.29,426.31a5.45,5.45,0,0,0,.36-2.39,350,350,0,0,1-.28-39.8c.64-12.44.1-24.72-.39-37.16a6.19,6.19,0,0,0-.24-1.48,5.4,5.4,0,0,0,0-3,10.89,10.89,0,0,0-.62-3.57,10.73,10.73,0,0,0-2.35-3.09,8.62,8.62,0,0,0-5-2.44,9.41,9.41,0,0,0-2.63-1.22l-.12,0a3,3,0,0,0-1.24-.25,2.88,2.88,0,0,0-1.72.52,2.83,2.83,0,0,0-1-.1,5.37,5.37,0,0,0-.75-2.39,5.55,5.55,0,0,0,.16-6.28,5.56,5.56,0,0,0-.25-6c3.23-2.5,2.25-9.05-3-9.05a4.58,4.58,0,0,0-3.52,1.45,4.83,4.83,0,0,0-3.91.34c-17.56,9-35.72,14.64-54.52,20.45a4.73,4.73,0,0,0-2.39,1.68l-.28,0c-4.86-.38-6,5.25-3.54,8.23a7.07,7.07,0,0,0-.49,2.49c-.38,28.44,1.13,57.07-.89,85.46A5.67,5.67,0,0,0,257,433a5.07,5.07,0,0,0,.09.54c-1.37,2.36-.28,6.19,3.28,6.19a3.83,3.83,0,0,0,2.13-.61,3.64,3.64,0,0,0,2.42.71q23.14-.84,46.3-.62c7,.07,14.22.72,21.18-.43,6.13-1,8.27-3.77,11.85-8.53A3.51,3.51,0,0,0,344.29,426.31Zm-24.7-105.56a5.45,5.45,0,0,0,.89,3.15,5.59,5.59,0,0,0,0,5.63,5.16,5.16,0,0,0-1,2.4l-16.83,0a4.47,4.47,0,0,0-3.5-2C306.14,327.25,312.94,324.1,319.59,320.75Zm-48.86,19.33a5.34,5.34,0,0,0,1.19-1,4.78,4.78,0,0,0,4.4,1.06,61,61,0,0,1,9.37-1.36,4.24,4.24,0,0,0,1.94.53,4.72,4.72,0,0,0,3.2,1.13,4.79,4.79,0,0,0,2.71-.77,5.08,5.08,0,0,0,1.4.21,5.16,5.16,0,0,0,1.91-.36,5.16,5.16,0,0,0,1.91.36,4.9,4.9,0,0,0,2.31-.55c.12,0,.23,0,.36,0l29.05-.37a3,3,0,0,1,2.37.36l.63-.05a2.52,2.52,0,0,0-.29,1.16v1.93a2.89,2.89,0,0,0,.47,1.64A5.24,5.24,0,0,0,333,347c.49,12.44,1,24.72.39,37.16a350,350,0,0,0,.28,39.8,5.16,5.16,0,0,0,.08.7c-21.52,1.17-43.23.47-64.77.42,1.65-27.19.3-54.56.66-81.77a6.57,6.57,0,0,0-.38-2.38C269.74,340.64,270.24,340.38,270.73,340.08Z" transform="translate(-255.03 -305.59)"/><path class="cls-2" d="M311.86,354.18q-14.36-.09-28.69-.32c-3.27-.05-4.46,3.16-3.57,5.53-1.77,2.3-.77,6.59,3,6.59a4.06,4.06,0,0,0,1.78-.4c7.55.52,15.11.77,22.67.67,6.61-.1,8.73-1.28,8.8-8.07A4.05,4.05,0,0,0,311.86,354.18Z" transform="translate(-255.03 -305.59)"/><path class="cls-2" d="M305.93,379a4.25,4.25,0,0,0-2.93-3.86c-1.74-.63-4-.29-5.84-.29-2.31,0-4.62,0-6.93.05a3.91,3.91,0,0,0-2.73,1.05,2.84,2.84,0,0,0-.65,0c-.36,0-.71.08-1.07.09-.08,0-.58,0-.85,0s-.67-.11-.76-.14-1.34-.46-.57-.13c-1.92-.82-4.38-.63-5.48,1.44a4.59,4.59,0,0,0-.07,3.92c-.59,2.3.63,5.13,3.71,5.13a4,4,0,0,0,1.59-.31,3.71,3.71,0,0,0,1.39-.4,3.92,3.92,0,0,0,2.26.71c2.2,0,4.41,0,6.61.09,2.37.08,4.65.92,7,.92C305.06,387.25,306.4,382.79,305.93,379Z" transform="translate(-255.03 -305.59)"/></g><g id="Layer_3" data-name="Layer 3"><path class="cls-3" d="M258.94,332.21l70.72-24.52v23.53s15,.14,15.31,10.06,0,84.48,0,84.48.57,10.77-11.2,14H256.53V333.49Z" transform="translate(-255.03 -305.59)"/><polygon class="cls-3" points="63.86 25.35 63.86 14.58 41.89 25.35 63.86 25.35"/><rect class="cls-3" x="14.68" y="34.71" width="63.07" height="84.76"/><rect class="cls-3" x="24.6" y="48.03" width="34.87" height="13.04"/><rect class="cls-3" x="23.33" y="69.15" width="27.65" height="12.33"/></g></svg>