<svg xmlns="http://www.w3.org/2000/svg" viewBox="0 0 162.86 115.82"><defs><style>.cls-1,.cls-3{fill:none;stroke-miterlimit:10;}.cls-1{stroke:#000;stroke-width:2px;}.cls-2{fill:#fff;}.cls-3{stroke:#fff;stroke-width:3px;}</style></defs><g id="Layer_2_copy" data-name="Layer 2 copy"><path class="cls-1" d="M216.23,409.79H199V435.3h17.2v13.42H191.28s-8.88-2.84-7.56-10.21V407.14s-.37-7,7.37-11.14h25.14Z" transform="translate(-182.09 -393.74)"/><path class="cls-1" d="M226.62,400.34v11.34h15.5v7.56h-17.2a8.92,8.92,0,0,0-4.35,7V442.1s.19,3.21,5.67,6.62H254l.95-37.23s1.51-8.32-8.69-11.15Z" transform="translate(-182.09 -393.74)"/><rect class="cls-1" x="51.9" y="33.81" width="7.75" height="11.53"/><path class="cls-1" d="M230.55,453.81v11.34h15.5v7.56h-17.2a9,9,0,0,0-4.35,7v15.88s.19,3.21,5.67,6.61H258L258.9,465s1.51-8.31-8.7-11.15Z" transform="translate(-182.09 -393.74)"/><rect class="cls-1" x="55.83" y="87.29" width="7.75" height="11.53"/><path class="cls-1" d="M291.06,401.85v12.47H273.3s-1.13,4.73,1.89,6.05h12.47s4.91-1.13,4.91,5.86v16.25s1.52,6.24-6.61,6.24H264V437.19h16.82l-.76-7.56H265s-5.29-1.51-5.29-8.32v-10.2s-.19-9.26,9.64-9.26Z" transform="translate(-182.09 -393.74)"/><polygon class="cls-1" points="116.53 6.6 129.76 6.6 129.76 23.23 143.37 23.23 143.37 1.5 159.24 1.5 159.24 54.03 144.69 54.03 144.69 36.46 131.08 36.46 131.08 54.03 116.53 54.03 116.53 6.6"/><path class="cls-1" d="M186.18,455h28.35s13.23,7,0,20.22c0,0,16.25,20-10.21,31l-18.14-.95Z" transform="translate(-182.09 -393.74)"/><rect class="cls-1" x="15.62" y="69.34" width="5.59" height="10.39"/><rect class="cls-1" x="15.62" y="89" width="9.64" height="10.96"/><path class="cls-1" d="M296,453.81H274.06s-7.94.95-7.94,6.25v33.63s.75,7.37,7.18,7.37H296V488.21H280.1V466.1H296Z" transform="translate(-182.09 -393.74)"/><polygon class="cls-1" points="120.5 60.08 133.16 60.08 133.16 73.5 144.41 62.26 159.24 62.26 140.11 81.39 158.11 114.32 146.2 114.32 132.78 91.08 132.78 109.22 120.5 109.22 120.5 60.08"/><path class="cls-2" d="M217,439.73a4,4,0,0,0-6-3.45c-2,1.06-7.91-.52-10.13-.74l-2.11-.22c0-1.51,0-3,0-4.55.06-6.53-.53-14.63,1.28-21.21,1.47,0,4,.12,4.87.09,2.66-.09,5.3-.31,8-.58,2-.22,4.13-1.66,4-4a24.6,24.6,0,0,1,.16-4.62c.29-2.23-2.07-3.88-4-4a198.4,198.4,0,0,0-20.55-.18,3.82,3.82,0,0,0-3.57,2.58,3.51,3.51,0,0,0-1.88,1c-4.27,4.68-3,14.26-3.13,20.1-.15,6.82-1.91,16.86,1.35,23.09,3.46,6.63,13.45,4.9,19.63,5.14,3,.11,7.11,1.12,9.82-.49C217.61,446,217,442.62,217,439.73Z" transform="translate(-182.09 -393.74)"/><path class="cls-2" d="M254,409.91c-1.53-9.37-13.49-10.14-21.11-9.3a4,4,0,0,0-1.58.56c-2-.82-4.5-.21-4.92,2.55-.17,1.16-.32,2.26-.38,3.44a4.06,4.06,0,0,0,4,4l13.14-.23a15.91,15.91,0,0,1-.46,6.47c-.86,2.76-1.76,1.86-4.31,2-3.63.15-8.15-.58-11.64.11a8.79,8.79,0,0,0-5.67,4.13c-1.39,2.8.14,5.78-.31,8.68-.51,3.2-1.9,6.17-.54,9.38,1,2.48,3.15,3.75,5.4,5,3,1.68,5.59,1.63,9,1.56a143.48,143.48,0,0,1,15.38.27c2.16.19,4-2,4-4q.06-8.83.11-17.65C254.13,421.35,254.87,415.36,254,409.91Zm-11.3,30.26c-1.4,0-2.81,0-4.23,0-1.62,0-3.39.24-5.08.23a4.41,4.41,0,0,0-.08-1.64c-.86-3.5.4-7.79.86-11.29a1.51,1.51,0,0,0,0-.3c1.83.06,3.7.22,5,.17s2.45,0,3.68-.17a99.9,99.9,0,0,1-.21,12.11A5.31,5.31,0,0,0,242.68,440.17Z" transform="translate(-182.09 -393.74)"/><path class="cls-2" d="M292.41,423.79a4,4,0,0,0-2.79-2.79c-3.55-.91-7.8-.18-11.4.19a4.11,4.11,0,0,0-1,.21,2.49,2.49,0,0,0-.32-.2,13.76,13.76,0,0,1-3.43-2.23,9.3,9.3,0,0,1-.57-3.3,4.26,4.26,0,0,0-.22-1.22c4.85-1.05,10.15-.54,15.06-.08,3.06.28,4.95-3.6,3.46-6,.3.49.2-2,.23-2.48.12-2-1.94-4.22-4-4-7.78.85-15.58-.32-23.21,1.73a23.25,23.25,0,0,1-3.8,5.37c-2.48,4.43-2.78,13.69.71,17.68,2.91,3.32,10.58,4.16,14.75,2.07a3.54,3.54,0,0,0,2.29.47c.8-.08,1.71-.22,2.66-.35a3.81,3.81,0,0,0,0,1.07,18.88,18.88,0,0,1-.5,5.55,27.12,27.12,0,0,0,0,2.85c-4.37.41-9.49-.38-13.6-.56-2.81-.13-4.29,2.64-3.86,5.06.85,4.83,3.45,5.17,8,5.43,5.49.3,11.16.91,16.6-.28,4.41-1,4.75-4.15,4.9-8.15C292.63,434.91,293.7,428.53,292.41,423.79Z" transform="translate(-182.09 -393.74)"/><path class="cls-2" d="M341.86,398.93a4.06,4.06,0,0,0-4-4c-3.14,0-6.26,0-9.39.07a4,4,0,0,0-3.86,5.07c1.16,3.68,2.13,6.72,1.48,10.59-.32,1.9-.21,4.06-.37,6a34.37,34.37,0,0,1-5.86,0H311.8c0-4,.09-8.11.31-12.15.16-2.89-3.57-5.18-6-3.45a3.35,3.35,0,0,1-3.1-.47c-4-1.64-6.13,3.67-3.8,6.49a3.93,3.93,0,0,0-.23.82c-2,11.46-.39,23.65-.64,35.28A3.92,3.92,0,0,0,303,447a9.14,9.14,0,0,0,3.15.13c.9.75,2.14.95,3.85.34a4.24,4.24,0,0,0,2.08-6.27c0-1.65.34-3.57.47-5a20,20,0,0,1,.63-4.14c.08-.27.94-3,.69-2.83,1.09-.77,5.48.24,6.86.3l5.61.24a49.55,49.55,0,0,0,.28,15.29,4,4,0,0,0,2.79,2.8c2.52.81,5.63.2,8.2,0a4.07,4.07,0,0,0,4-4Q341,421.37,341.86,398.93Z" transform="translate(-182.09 -393.74)"/><path class="cls-2" d="M218.24,489.26v0c.3-2.25-.49-4.29-1.27-6.35s-1.08-4.09-2.22-5.9a16.56,16.56,0,0,0,3.46-6.28c1.66-4.59,2.1-12.56-3.51-14.76-3.16-1.25-8-.82-11.33-.84-4.45,0-9,.5-13.43,0-3.93-.47-4.79,4.18-2.66,6.61a4.23,4.23,0,0,0-.56,1.29c-1.53,6-1.25,12.17-1.23,18.28,0,3.77,0,7.55.21,11.32.1,1.92,0,4.15.73,6-1.39,2.36-.31,6.21,3.27,6.21a3.86,3.86,0,0,0,1.87-.45,5.17,5.17,0,0,0,1.56.38c1.28.1,3,.25,4.9.29a17.86,17.86,0,0,0,3.51.23,18.66,18.66,0,0,0,7-1.92,25.56,25.56,0,0,0,10.16-9.49A3.47,3.47,0,0,0,218.24,489.26Zm-12,4.86-8.88.27c.75-4.15.5-9.05.6-12.58a1.21,1.21,0,0,0,0-.19l.28-.13a4.14,4.14,0,0,0,3.83,0,3.89,3.89,0,0,0,1.87.45,4.2,4.2,0,0,0,1.48-.26,3.82,3.82,0,0,0,1.16,2.13c2.2,2.13,1.52,7,1.65,9.85a1.75,1.75,0,0,0,0,.32l-.47.39A3.6,3.6,0,0,0,206.25,494.12Zm-2-31a4.1,4.1,0,0,0,0,.94c.17,2.7-.82,6.72-.43,9.9a4,4,0,0,0-1.71.44,4.06,4.06,0,0,0-3.83,0l-.19-.09c0-3,.24-6.27-.54-9a5.33,5.33,0,0,0-1.12-2.08C199,463.32,201.64,463.18,204.25,463.16Z" transform="translate(-182.09 -393.74)"/><path class="cls-2" d="M251.89,455.35a4.21,4.21,0,0,0-3.08-.09,38.14,38.14,0,0,0-10.89-.79,4.07,4.07,0,0,0-1.73.52c-2.32-1.52-6.34-.47-6.38,3.18,0,3.41.46,6.43,4.44,6.89,2,.24,4.37-.34,6.46-.35l6.63,0a4,4,0,0,0-.44,1.53c-.26,2.83-.12,5.29-2.83,6.37-1.42.57-3.88-.09-5.49,0-3.14.23-7.24.18-10.19,1.27-2.65,1-3.66,3.13-3.85,5.8a84.3,84.3,0,0,0,.33,13.1,8,8,0,0,0,2.55,5.61,3.88,3.88,0,0,0,6.42,2.59c1,.22,2.13.41,3.22.63a11.66,11.66,0,0,0,4,.45,8.59,8.59,0,0,0,2.48-.71c-.12.43.05.66.51.68,3.65.91,6.6,1.28,10.31.28a4.07,4.07,0,0,0,2.79-4.92c-.82-3.22.54-7.7.68-11.09.18-4.53.31-9.06.46-13.6C258.56,465.47,259.73,458.83,251.89,455.35Zm-6,38.51a11,11,0,0,0-2.71-.49c-1.73-.06-2.92.52-4.63.32l-1.28-.15q.11-6.36.23-12.73c.95-.12,1.91-.22,2.89-.26,1.76-.07,3.58.06,5.36-.09C245.2,484.81,246.2,489.47,245.91,493.86Z" transform="translate(-182.09 -393.74)"/><path class="cls-2" d="M296.41,491.52c-1.08-2.87-3.43-3-6.15-3.06-3.65-.08-7.31,0-11,0,.76-3.54.21-8.09.32-10.48.08-1.82-.62-10.36.85-11.8.64-.63,3.36-.06,4.37-.05,2.62,0,5.24,0,7.85-.12a4.06,4.06,0,0,0,4-4,13.93,13.93,0,0,0-.45-5,4.18,4.18,0,0,0-3.86-2.94c-3-.1-5.95.69-9,.67-3.44,0-6.86-.36-10.29-.69a3.22,3.22,0,0,0-3.62,2.31,4,4,0,0,0-3.22,3.8c-.15,1.76-.25,3.5-.3,5.27a3.48,3.48,0,0,0,1.55,3.17c0,.68-.09,1.37-.11,2.05a83.56,83.56,0,0,0,.15,9.09,3.58,3.58,0,0,0-1.11,2,23.5,23.5,0,0,0-.43,9.73c.5,2.54,1.08,6.4,3.46,7.95s6,.95,8.57,1q5.74.07,11.5,0c2.43,0,5.05.2,6.51-2.11C297.22,496.52,297.13,493.46,296.41,491.52Z" transform="translate(-182.09 -393.74)"/><path class="cls-2" d="M335.42,500.93c-5.58-7.25-8.28-16.25-13.61-23.67a4.55,4.55,0,0,0-.61-.69,3.7,3.7,0,0,0,2.77-3.21,3.93,3.93,0,0,0,2-3.6,3.7,3.7,0,0,0,.92-1.27,16.37,16.37,0,0,0,2.51-2.61c1.68-2.28,2-2.05,4.91-2.42,5-.63,5.1-8.64,0-8-3.8.48-7.45.44-10,3.65-2.27,2.84-5.81,7.43-9.74,8.63.22-2.74.41-5.46.82-8.22.36-2.43-1-5.17-3.86-5.06a15.64,15.64,0,0,1-4.67-.44c-3.92-1-6.06,3.59-4.38,6.18a3.78,3.78,0,0,0-.53,2c0,6,.64,11.83.91,17.79.3,6.66-.12,13.42-.2,20.09a4.05,4.05,0,0,0,5.63,3.66,3.83,3.83,0,0,0,.83.07c5-.11,5.3-4.59,5.68-8.54a3.29,3.29,0,0,0-1.09-3c.1-.8.19-1.61.26-2.43.15-2.07-.77-6.89.41-8.65,1,1.44,2,5.2,2.4,6.18a77.79,77.79,0,0,0,3.65,7.38c1.11,2,1.77,4.46,3.17,6.3s3.51,3.08,4.93,5.11a4,4,0,0,0,3.17,1.77l.2,0a3.82,3.82,0,0,0,2.31.71C339,508.75,339.35,502.06,335.42,500.93Z" transform="translate(-182.09 -393.74)"/></g><g id="Layer_2" data-name="Layer 2"><path class="cls-3" d="M216.23,409.79H199V435.3h17.2v13.42H191.28s-8.88-2.84-7.56-10.21V407.14s-.37-7,7.37-11.14h25.14Z" transform="translate(-182.09 -393.74)"/><path class="cls-3" d="M226.62,400.34v11.34h15.5v7.56h-17.2a8.92,8.92,0,0,0-4.35,7V442.1s.19,3.21,5.67,6.62H254l.95-37.23s1.51-8.32-8.69-11.15Z" transform="translate(-182.09 -393.74)"/><rect class="cls-3" x="51.9" y="33.81" width="7.75" height="11.53"/><path class="cls-3" d="M230.55,453.81v11.34h15.5v7.56h-17.2a9,9,0,0,0-4.35,7v15.88s.19,3.21,5.67,6.61H258L258.9,465s1.51-8.31-8.7-11.15Z" transform="translate(-182.09 -393.74)"/><rect class="cls-3" x="55.83" y="87.29" width="7.75" height="11.53"/><path class="cls-3" d="M291.06,401.85v12.47H273.3s-1.13,4.73,1.89,6.05h12.47s4.91-1.13,4.91,5.86v16.25s1.52,6.24-6.61,6.24H264V437.19h16.82l-.76-7.56H265s-5.29-1.51-5.29-8.32v-10.2s-.19-9.26,9.64-9.26Z" transform="translate(-182.09 -393.74)"/><polygon class="cls-3" points="116.53 6.6 129.76 6.6 129.76 23.23 143.37 23.23 143.37 1.5 159.24 1.5 159.24 54.03 144.69 54.03 144.69 36.46 131.08 36.46 131.08 54.03 116.53 54.03 116.53 6.6"/><path class="cls-3" d="M186.18,455h28.35s13.23,7,0,20.22c0,0,16.25,20-10.21,31l-18.14-.95Z" transform="translate(-182.09 -393.74)"/><rect class="cls-3" x="15.62" y="69.34" width="5.59" height="10.39"/><rect class="cls-3" x="15.62" y="89" width="9.64" height="10.96"/><path class="cls-3" d="M296,453.81H274.06s-7.94.95-7.94,6.25v33.63s.75,7.37,7.18,7.37H296V488.21H280.1V466.1H296Z" transform="translate(-182.09 -393.74)"/><polygon class="cls-3" points="120.5 60.08 133.16 60.08 133.16 73.5 144.41 62.26 159.24 62.26 140.11 81.39 158.11 114.32 146.2 114.32 132.78 91.08 132.78 109.22 120.5 109.22 120.5 60.08"/></g></svg>