<svg xmlns="http://www.w3.org/2000/svg" viewBox="0 0 173.08 174.97"><defs><style>.cls-1,.cls-3{fill:none;stroke-miterlimit:10;stroke-width:3px;}.cls-1{stroke:#231f20;}.cls-2{fill:#fff;}.cls-3{stroke:#fff;}</style></defs><g id="Layer_2_copy" data-name="Layer 2 copy"><rect class="cls-1" x="1.5" y="1.5" width="74.08" height="74.83"/><rect class="cls-1" x="20.4" y="18.51" width="38.93" height="41.57"/><rect class="cls-1" x="95.99" y="1.5" width="75.59" height="76.35"/><rect class="cls-1" x="1.5" y="97.12" width="74.08" height="76.35"/><rect class="cls-1" x="113.37" y="16.62" width="41.95" height="43.46"/><rect class="cls-1" x="31.74" y="30.6" width="15.87" height="17.39"/><rect class="cls-1" x="125.85" y="30.6" width="15.12" height="17.39"/><rect class="cls-1" x="20.4" y="113.75" width="38.93" height="41.2"/><rect class="cls-1" x="31.74" y="126.98" width="15.87" height="15.5"/><polygon class="cls-1" points="95.99 109.97 113.37 109.97 113.37 126.98 140.97 126.98 140.97 103.55 157.22 103.55 157.22 126.98 140.97 126.98 136.43 126.98 136.43 154.95 113.37 154.95 113.37 173.47 95.99 173.47 95.99 154.95 113.37 154.95 113.37 126.98 95.99 126.98 95.99 109.97"/><polygon class="cls-1" points="140.97 154.95 155.33 154.95 155.33 134.35 171.58 134.35 171.58 173.47 140.97 173.47 140.97 154.95"/><path class="cls-2" d="M225.35,360.17c.45-3.06-1.25-6.43-4.82-6.33-21.31.64-43.35,2.91-64.56.17a4.47,4.47,0,0,0-2.3.24,4.78,4.78,0,0,0-4.46,4.79c-.05,2.36.71,4.57.71,7q0,4.41,0,8.82a4.66,4.66,0,0,0,1.26,3.33c-1.06,4.48-.37,9.64-.46,14.21-.22,10.58-.86,21.15-1.83,31.68-.26,2.73,2.49,5,5,5l65.35,1.07a5.06,5.06,0,0,0,5-5c0-5.41.93-10.77,1-16.18.08-5.08-1.51-9.63-2-14.58-.5-5.15,1-10.57,1.06-15.77A127.32,127.32,0,0,1,225.35,360.17Zm-16.8,54.19c-3,.14-6.29-.42-9.07-.49l-11.54-.28a4.31,4.31,0,0,0-2.88,1,63.17,63.17,0,0,0-10.64-.39,5.24,5.24,0,0,0-1.14.23,47.34,47.34,0,0,1-5.26-1.26,53.82,53.82,0,0,0,1-13.86c-.2-2.33-.81-4.6-1.07-6.92a14.2,14.2,0,0,1-.06-1.72q.82-3.78,1.63-7.58a4.94,4.94,0,0,0-1-4.31,43.47,43.47,0,0,0,1-6.54c7.09-.26,14.17-.57,21.26-.75a97.1,97.1,0,0,1,11.57.21c2.12.2,4.19.59,6.27.81.19,4.9.11,9.76.76,14.69a73.85,73.85,0,0,0-.64,11.23C208.87,403.26,209.85,409.39,208.55,414.36Z" transform="translate(-148.78 -352.92)"/><path class="cls-2" d="M191,383.69a23.51,23.51,0,0,1-6.52.36,5,5,0,0,0-5,5,5.14,5.14,0,0,0,1.59,3.58,8.19,8.19,0,0,0-.53.74,5.05,5.05,0,0,0,1.79,6.84,5.13,5.13,0,0,0,4.9,0h0l2.32.1c2.18.11,4.35.31,6.05-1.38s1.57-3.6,1.61-5.65c0-1.6.07-3.2.1-4.79C197.39,385.09,194.09,383.05,191,383.69Z" transform="translate(-148.78 -352.92)"/><path class="cls-2" d="M321.63,359.18c.13-3.61-4.4-6.47-7.52-4.31-1.81,1.25-8.47.23-10.63.24a5,5,0,0,0-2.71.75c-17.11-2.06-34.33-1.81-51.53-1.47-2.57.05-5.18,2.25-5,5q.56,8.66.39,17.33a4.49,4.49,0,0,0,1.57,3.67c.15,7.12-1.71,14.15-1,21.27a69.73,69.73,0,0,1,.54,10.62,20,20,0,0,0,.1,3,5.25,5.25,0,0,0-.47,2.06c0,1.6.09,5.22-.31,5.79-2.28,3.29.81,7.38,4.32,7.53q28.14,1.18,56.31.88a4.71,4.71,0,0,0,3.58-1.6,12.24,12.24,0,0,0,8.22,1c3.23-.6,4.5-4.75,3-7.34-.63-1.09-.1-3.61-.78-5.44a17,17,0,0,0,.36-3.59c0-5.6,1.44-10.93,1.49-16.48C321.68,385.12,321.2,372.17,321.63,359.18Zm-31.7,54.34a4.53,4.53,0,0,0-2.43.76c-8.7-.4-17.41-.88-26.06-.65,0-6.65,0-13.29.16-19.93.09-3.86.21-7.71.37-11.57.14-3.59-.58-9.19.62-12.51.47-1.32-.35-.89,1.86-1.12s4.23-.2,6.33-.21c3.64,0,7.27.14,10.91.19,3.45,0,6.89,0,10.31-.31a4.81,4.81,0,0,0,2.75.79,5.11,5.11,0,0,0,2.06-.41,5.63,5.63,0,0,0,.87.15,64.81,64.81,0,0,0,6.63.41c-1,10-.2,20.28,0,30.26.06,3.9-.69,9.17.16,13.44C299.54,412.89,294.52,413.43,289.93,413.52Z" transform="translate(-148.78 -352.92)"/><path class="cls-2" d="M290,393.8c-.08-.36-.13-.49-.14-.44,0-.21,0-.43,0-.65,0-.78,0-1.58,0-2.38a5.94,5.94,0,0,0,.23-.81c.82-4.19-3.28-7.79-7.24-5.7h-.58a4.87,4.87,0,0,0-2.27.57,5,5,0,0,0-3.13-.21,5.11,5.11,0,0,0-3,2.3,5,5,0,0,0-.5,3.85,5,5,0,0,0,2.23,2.95,4.47,4.47,0,0,0-.81,2.71,5.09,5.09,0,0,0,5,5c3.73,0,9.2.85,10.49-3.83A5.29,5.29,0,0,0,290,393.8Z" transform="translate(-148.78 -352.92)"/><path class="cls-2" d="M223.14,512.36a8.89,8.89,0,0,0,1-2.29c2.15-7.52.29-17.3-.28-25a5.48,5.48,0,0,0-.31-1.46c1.21-4.62,2.4-12.13-.7-16.07,0-3.23-.32-8.36,1.08-10.31,2.08-2.9-.67-8-4.32-7.52a26.76,26.76,0,0,1-4.65.17,4.46,4.46,0,0,0-3.39,1.18,64.8,64.8,0,0,0-6.54-.06l-16.72-.23-33.44-.46c-5-.07-6.12,6-3.34,8.69a5.53,5.53,0,0,0-.55,4.6,4.9,4.9,0,0,0-1.09,2.94c-.79,15.72.75,31.33-.56,47.05a4,4,0,0,0,1.18,3.19,26.09,26.09,0,0,0-.76,3.5c-.55,3.33,1.32,6.09,4.82,6.32a322.23,322.23,0,0,0,33,.18c5.19-.18,10.38-.4,15.57-.55,2.92-.09,5.83-.16,8.75-.19l3.9,0c1.3,0,3.67.86,1.82-.22a5,5,0,0,0,7.52-4.31C225.2,518.48,224.83,514.68,223.14,512.36Zm-14.46-5.24c-11.47.41-22.91.09-34.39.36-1.33,0-2.67.09-4,.18a42,42,0,0,0-.65-6.46c-.36-2.43-1.25-4.78-1.38-7.23-.16-2.89.47-5.76.28-8.67s-.82-5.69-.55-8.64a37.3,37.3,0,0,0,.17-7.62,5.55,5.55,0,0,0-.52-1.81l3.72-.26q9.33-.64,18.69-.91a87.19,87.19,0,0,0,13.25-.9,5.13,5.13,0,0,0,2.68,2.1,7.44,7.44,0,0,1,1.61.74,75,75,0,0,1,1.07,9.2c.18,4.3,0,8.65,0,13s-.06,8.79-.06,13.19C208.58,504.63,208.58,505.89,208.68,507.12Z" transform="translate(-148.78 -352.92)"/><path class="cls-2" d="M197,488.87a18.45,18.45,0,0,0-.38-2.77c0-.18,0-.3-.06-.38,0-.31,0-.27-.13.17a5.15,5.15,0,0,0-1.79-5.26,5,5,0,0,0-5.29-.53h-4.24a5.06,5.06,0,0,0-5,5,5.31,5.31,0,0,0,.94,2.83c-.16.2-.32.39-.47.61a4.94,4.94,0,0,0,6.24,7.06q.38.06.75.09c.68.06,1.37.1,2.06.11,2.06,0,4.26,0,5.83-1.59S197.16,490.8,197,488.87Z" transform="translate(-148.78 -352.92)"/><path class="cls-2" d="M261.52,463.27a5,5,0,0,0-5.56-.39,3.24,3.24,0,0,1-2.25.55,16.75,16.75,0,0,0-6-.37c-2.66.45-4.16,3.73-3.49,6.15a4.64,4.64,0,0,0,1.41,2.3,4.61,4.61,0,0,0-1.32,3.29c0,2.44,2.3,5.33,5,5,3.77-.47,8.67,1.38,11.94-1.14,1.94-1.5,2.2-3.79,2-6.07-.12-1.68-.47-2.76.06-4.07C264,466.72,263,464.33,261.52,463.27Z" transform="translate(-148.78 -352.92)"/><path class="cls-2" d="M286.11,495.11,286,485c0-3.5-3.15-5.36-6.33-4.82-2.93.5-6-.06-9,.37a4.4,4.4,0,0,0-.95.25.41.41,0,0,1-.11-.07c-4.67-3.13-9.08,3-6.61,7a6.07,6.07,0,0,0-.54.67c-2.66,3.92-1.68,10.53-.78,14.91,1.24,6,7.37,5,12.16,4.95,4.34,0,10.88.94,12.19-4.56C286.64,501.05,286.14,497.8,286.11,495.11Z" transform="translate(-148.78 -352.92)"/><path class="cls-2" d="M306.18,468.72a60.35,60.35,0,0,1,.26-7.24c.2-2.7-2.45-5-5-5a4.66,4.66,0,0,0-3.05,1.1A4.67,4.67,0,0,0,295,456.2c-2.53,0-5.24,2.29-5,5a48.21,48.21,0,0,1-.37,12.18c-.53,3.16,1.31,6.33,4.82,6.33a44.41,44.41,0,0,0,6-.18,5.25,5.25,0,0,0,1.35.17,4.74,4.74,0,0,0,4.83-5.09C306.93,472.67,306.26,470.67,306.18,468.72Z" transform="translate(-148.78 -352.92)"/><path class="cls-2" d="M261.74,517.26c-.05-2.16.32-4.34-.07-6.47a5,5,0,0,0-3.49-3.49,9.44,9.44,0,0,0-3.78-.19,6,6,0,0,0-3.39,1.43,5.35,5.35,0,0,0-5.88,1c-2.08,2.08-1.7,5,0,7.07.51.64,0,2.93-.18,3.8-.42,2.42.63,5.71,3.5,6.15,4.09.64,11.25,2,13.17-2.95C262.4,521.57,261.8,519.35,261.74,517.26Z" transform="translate(-148.78 -352.92)"/><path class="cls-2" d="M320.64,492c.07-3.58-3.23-5.26-6.33-4.82l-.69-.1a5.34,5.34,0,0,0-2.18,0c-4.36-3.09-10.29,3.41-6.2,7.83.66.72-1.69,11.26-2.28,12.38-.91,1.73-1.8.82-3.75,1.54a8,8,0,0,0-.94.43c-2.78-2.85-8.87-1.78-8.66,3.27a54.43,54.43,0,0,1-.4,9.38c-.32,2.48,2.56,5.28,5,5a66.56,66.56,0,0,1,13.68.19,4.14,4.14,0,0,0,4-2.12,7.35,7.35,0,0,0,1.07,1c4.15,3.13,8.2-1.92,6.93-6l.09.12c-.71-4.12.28-9.4.36-13.62Z" transform="translate(-148.78 -352.92)"/></g><g id="Layer_2" data-name="Layer 2"><rect class="cls-3" x="1.5" y="1.5" width="74.08" height="74.83"/><rect class="cls-3" x="20.4" y="18.51" width="38.93" height="41.57"/><rect class="cls-3" x="95.99" y="1.5" width="75.59" height="76.35"/><rect class="cls-3" x="1.5" y="97.12" width="74.08" height="76.35"/><rect class="cls-3" x="113.37" y="16.62" width="41.95" height="43.46"/><rect class="cls-3" x="31.74" y="30.6" width="15.87" height="17.39"/><rect class="cls-3" x="125.85" y="30.6" width="15.12" height="17.39"/><rect class="cls-3" x="20.4" y="113.75" width="38.93" height="41.2"/><rect class="cls-3" x="31.74" y="126.98" width="15.87" height="15.5"/><polygon class="cls-3" points="95.99 109.97 113.37 109.97 113.37 126.98 140.97 126.98 140.97 103.55 157.22 103.55 157.22 126.98 140.97 126.98 136.43 126.98 136.43 154.95 113.37 154.95 113.37 173.47 95.99 173.47 95.99 154.95 113.37 154.95 113.37 126.98 95.99 126.98 95.99 109.97"/><polygon class="cls-3" points="140.97 154.95 155.33 154.95 155.33 134.35 171.58 134.35 171.58 173.47 140.97 173.47 140.97 154.95"/></g></svg>